<svg xmlns="http://www.w3.org/2000/svg" viewBox="0 0 937 1024">
  <defs>
    <style>
      .cls-1 {
        fill: #fff;
      }
    </style>
  </defs>
  <g id="Layer_1" data-name="Layer 1">
    <ellipse class="cls-1" cx="468.5" cy="512" rx="662.56" ry="724.08"/>
    <path d="M860.08,515.17c-.24,220.12-179.85,397.4-399.9,395.36-217.64-2-393.25-180.93-391.34-399.37s180.64-394.09,399.1-392.07C686,121.1,860.3,298.45,860.08,515.17Z"/>
  </g>
  <g id="top_right" data-name="top right">
    <path class="cls-1" d="M469.05,510.09V127.86c55.24.7,107.81,12.27,157.62,35.58q115.67,54.12,177.46,166.12c30.85,56,46.23,116.22,47.17,180.53Z"/>
  </g>
  <g id="bottom_left">
    <path class="cls-1" d="M459.61,901.31c-205.46,1-382-173.15-381.63-381.84H459.61Z"/>
  </g>
  <g id="bottom_right">
    <path class="cls-1" d="M469.14,519.36H851.47C849.11,617,816.54,702.73,750.76,774.74c-75.3,82.43-169.83,123.75-281.62,127.34Z"/>
  </g>
  <g id="top_left">
    <path class="cls-1" d="M77.84,510C79,300.52,252.19,129,459.65,128.11V510Z"/>
  </g>
</svg>
